<svg width="300" height="128" viewBox="0 0 300 128" fill="none" xmlns="http://www.w3.org/2000/svg">
<path d="M69.5916 8.56934H50.2725L49.589 9.73748H69.5916V8.56934Z" fill="#E0E0E0"/>
<path d="M71.5458 75.6958V74.1572H55.1867V75.6958H31.8707L32.7917 74.1572H13.8597L7.30933 85.3537H82.6868V75.6958H71.5458ZM25.5723 83.8151H21.867V82.7172H25.5723V83.8151ZM70.8256 81.9532H67.1203V79.7583H70.8256V81.9532Z" fill="#E0E0E0"/>
<path d="M37.1757 62.2012V63.2982H39.3016L36.4661 68.0323H17.4463L23.2147 58.1695H25.5723V57.0716H23.8586L26.642 52.3076H45.8829L39.96 62.2012H37.1757Z" fill="#E0E0E0"/>
<path d="M35.457 69.7129H16.4594L15.689 71.0292H34.6682L35.457 69.7129Z" fill="#E0E0E0"/>
<path d="M91.4375 86.916H15.1449L14.9016 87.3317H91.4375V86.916Z" fill="#E0E0E0"/>
<path d="M71.5456 92.0024H82.6885V89.9336H4.63106L3.42041 92.0024H55.1865V102.316H71.5456V92.0024Z" fill="#E0E0E0"/>
<path d="M71.5458 108.213H55.1866V114.829H71.5458V108.213Z" fill="#E0E0E0"/>
<path d="M55.1866 36.7847V38.1154H71.5457V30.9854H39.1152L34.9436 38.1154H54.3892L55.1866 36.7847Z" fill="#E0E0E0"/>
<path d="M71.5458 0H57.2412L53.5107 6.37762H71.5458V0Z" fill="#E0E0E0"/>
<path d="M50.2467 45.0303H30.8996L30.2576 46.1272H49.5892L50.2467 45.0303Z" fill="#E0E0E0"/>
<path d="M71.5458 105.443H55.1866V106.53H71.5458V105.443Z" fill="#E0E0E0"/>
<path d="M48.2752 48.3184H28.9744L27.6257 50.6238H46.8937L48.2752 48.3184Z" fill="#E0E0E0"/>
<path d="M49.0676 13.9727L41.5903 26.7491H71.5446V13.9727H49.0676ZM62.5294 25.8205H58.9323V23.9432H62.5294V25.8205Z" fill="#E0E0E0"/>
<path d="M71.5458 48.3184H55.1866V50.6238H71.5458V48.3184Z" fill="#E0E0E0"/>
<path d="M71.5458 119.644H55.1866V126.032H71.5458V119.644Z" fill="#E0E0E0"/>
<path d="M71.5458 52.3096H55.1866V68.0294H71.5458V52.3096Z" fill="#E0E0E0"/>
<path d="M71.5458 45.0303H55.1866V46.1272H71.5458V45.0303Z" fill="#E0E0E0"/>
<path d="M71.5458 69.7129H55.1866V71.0292H71.5458V69.7129Z" fill="#E0E0E0"/>
<path d="M192.305 48.3184H175.55V50.6238H192.305V48.3184Z" fill="#E0E0E0"/>
<path d="M119.201 83.2609V74.1602H102.446V83.2609C102.446 83.9652 102.464 84.6619 102.493 85.3537H119.277C119.232 84.6648 119.201 83.9691 119.201 83.2609Z" fill="#E0E0E0"/>
<path d="M119.202 48.3184H102.447V50.6238H119.202V48.3184Z" fill="#E0E0E0"/>
<path d="M128.171 86.916H111.34C111.349 87.0546 111.357 87.1941 111.368 87.3317H128.218C128.201 87.1941 128.187 87.0546 128.171 86.916Z" fill="#E0E0E0"/>
<path d="M119.202 69.7129H102.447V71.0292H119.202V69.7129Z" fill="#E0E0E0"/>
<path d="M127.46 24.9689C132.965 19.5083 139.592 16.7766 147.336 16.7766C155.133 16.7766 161.785 19.5074 167.292 24.9689C167.877 25.5492 168.424 26.1457 168.947 26.751H188.646C186.608 22.141 183.716 17.8812 179.97 13.9717H114.782C111.037 17.8812 108.144 22.141 106.106 26.751H125.805C126.328 26.1457 126.875 25.5492 127.46 24.9689Z" fill="#E0E0E0"/>
<path d="M119.948 89.9336H102.901C103.511 94.3146 104.738 98.4425 106.584 102.316H126.697C123.274 98.6802 121.025 94.5532 119.948 89.9336Z" fill="#E0E0E0"/>
<path d="M192.305 69.7129H175.55V71.0292H192.305V69.7129Z" fill="#E0E0E0"/>
<path d="M174.805 38.1154H191.857C191.517 35.6579 190.975 33.2831 190.248 30.9854H171.973C173.269 33.2177 174.215 35.5934 174.805 38.1154Z" fill="#E0E0E0"/>
<path d="M122.778 30.9854H104.504C103.776 33.2841 103.235 35.6579 102.895 38.1154H119.946C120.536 35.5934 121.481 33.2177 122.778 30.9854Z" fill="#E0E0E0"/>
<path d="M192.305 45.0303H175.55V46.1272H192.305V45.0303Z" fill="#E0E0E0"/>
<path d="M172.301 9.73748C171.809 9.3372 171.312 8.9446 170.81 8.56934H117.763C117.26 8.9446 116.765 9.33816 116.273 9.73748H172.301Z" fill="#E0E0E0"/>
<path d="M168.055 102.316H188.168C190.013 98.4425 191.241 94.3146 191.851 89.9336H174.803C173.726 94.5532 171.477 98.6802 168.055 102.316Z" fill="#E0E0E0"/>
<path d="M121.152 119.645C128.732 125.209 137.459 128 147.334 128C157.256 128 166.009 125.209 173.594 119.645H121.152ZM141.113 122.834H137.953V120.639H141.113V122.834Z" fill="#E0E0E0"/>
<path d="M184.028 87.3317H200.88C200.891 87.1941 200.898 87.0546 200.909 86.916H184.077C184.06 87.0546 184.046 87.1941 184.028 87.3317Z" fill="#E0E0E0"/>
<path d="M167.034 116.6H183.885C183.897 116.463 183.904 116.323 183.913 116.185H167.082C167.066 116.323 167.052 116.463 167.034 116.6Z" fill="#E0E0E0"/>
<path d="M119.202 45.0303H102.447V46.1272H119.202V45.0303Z" fill="#E0E0E0"/>
<path d="M192.305 52.3096H175.55V68.0294H192.305V52.3096Z" fill="#E0E0E0"/>
<path d="M175.55 83.2609C175.55 83.9691 175.519 84.6648 175.474 85.3537H192.258C192.286 84.6609 192.305 83.9643 192.305 83.2609V74.1602H175.55V83.2609Z" fill="#E0E0E0"/>
<path d="M130.104 105.443H108.252C108.465 105.807 108.68 106.17 108.905 106.53H131.57C131.074 106.187 130.586 105.823 130.104 105.443Z" fill="#E0E0E0"/>
<path d="M163.175 106.53H185.846C186.071 106.171 186.285 105.807 186.498 105.443H164.644C164.161 105.823 163.673 106.187 163.175 106.53Z" fill="#E0E0E0"/>
<path d="M102.447 52.3076V68.0323H119.202V52.3076H102.447ZM112.836 58.718H109.131V56.5231H112.836V58.718Z" fill="#E0E0E0"/>
<path d="M160.39 108.211C156.469 110.267 152.12 111.299 147.335 111.299C142.585 111.299 138.258 110.268 134.352 108.211H110.011C111.606 110.524 113.449 112.73 115.553 114.827H179.198C181.297 112.73 183.144 110.524 184.74 108.211H160.39ZM175.55 112.411H166.699V110.216H175.55V112.411Z" fill="#E0E0E0"/>
<path d="M147.336 0C138.706 0 130.956 2.13036 124.08 6.37762H170.665C163.776 2.13036 156.002 0 147.336 0Z" fill="#E0E0E0"/>
<path d="M211.984 92.0024H263.749V102.316H280.108V92.0024H291.251V89.9336H213.195L211.984 92.0024Z" fill="#E0E0E0"/>
<path d="M280.108 48.3184H263.749V50.6238H280.108V48.3184Z" fill="#E0E0E0"/>
<path d="M280.108 52.3096H263.749V68.0294H280.108V52.3096Z" fill="#E0E0E0"/>
<path d="M223.464 87.3317H300V86.916H223.707L223.464 87.3317Z" fill="#E0E0E0"/>
<path d="M229.072 111.725H268.558V111.311H229.315L229.072 111.725Z" fill="#E0E0E0"/>
<path d="M24.9602 95.8776H64.4451V95.4619H25.2035L24.9602 95.8776Z" fill="#E0E0E0"/>
<path d="M46.1964 110.167H85.6813V109.751H46.4387L46.1964 110.167Z" fill="#E0E0E0"/>
<path d="M91.5977 93.3503H131.083V92.9355H91.84L91.5977 93.3503Z" fill="#E0E0E0"/>
<path d="M47.3771 57.3727H68.9727V56.958H47.5103L47.3771 57.3727Z" fill="#E0E0E0"/>
<path d="M161.504 39.4987H183.098V39.083H161.636L161.504 39.4987Z" fill="#E0E0E0"/>
<path d="M117.422 41.986H139.016V41.5713H117.554L117.422 41.986Z" fill="#E0E0E0"/>
<path d="M239.358 58.9264H260.953V58.5107H239.491L239.358 58.9264Z" fill="#E0E0E0"/>
<path d="M227.219 34.7575H248.815V34.3418H227.353L227.219 34.7575Z" fill="#E0E0E0"/>
<path d="M263.749 75.6988H240.435L241.356 74.1602H222.422L215.874 85.3537H291.251V75.6988H280.108V74.1602H263.749V75.6988Z" fill="#E0E0E0"/>
<path d="M280.108 69.7129H263.749V71.0292H280.108V69.7129Z" fill="#E0E0E0"/>
<path d="M243.506 38.1154H262.952L263.749 36.7847V38.1154H280.108V30.9854H247.678L243.506 38.1154Z" fill="#E0E0E0"/>
<path d="M257.018 9.73748H277.021V8.56934H257.702L257.018 9.73748Z" fill="#E0E0E0"/>
<path d="M280.108 105.443H263.749V106.53H280.108V105.443Z" fill="#E0E0E0"/>
<path d="M280.108 45.0303H263.749V46.1272H280.108V45.0303Z" fill="#E0E0E0"/>
<path d="M257.627 13.9727L250.155 26.7491H280.109V13.9727H257.627ZM257.627 23.5179H255.754V21.3231H257.627V23.5179ZM274.897 17.2663H271.145V15.0715H274.897V17.2663Z" fill="#E0E0E0"/>
<path d="M258.151 46.1272L258.809 45.0303H239.462L238.821 46.1272H258.151Z" fill="#E0E0E0"/>
<path d="M280.108 108.213H263.749V114.829H280.108V108.213Z" fill="#E0E0E0"/>
<path d="M280.108 0H265.804L262.073 6.37762H280.108V0Z" fill="#E0E0E0"/>
<path d="M280.108 119.644H263.749V126.032H280.108V119.644Z" fill="#E0E0E0"/>
<path d="M236.188 50.6238H255.456L256.838 48.3184H237.537L236.188 50.6238Z" fill="#E0E0E0"/>
<path d="M226.007 68.0294H245.028L254.447 52.3096H235.203L226.007 68.0294Z" fill="#E0E0E0"/>
<path d="M224.251 71.0292H243.231L244.019 69.7129H225.022L224.251 71.0292Z" fill="#E0E0E0"/>
<path d="M74.1187 6.37793H56.0836L54.7996 8.5718H74.1187V6.37793Z" fill="#E0E0E0"/>
<path d="M176.47 8.5718C175.416 7.78566 174.336 7.0563 173.237 6.37793H126.652C125.554 7.0563 124.477 7.78566 123.424 8.5718H176.47Z" fill="#E0E0E0"/>
<path d="M282.681 8.5718V6.37793H264.646L263.362 8.5718H282.681Z" fill="#E0E0E0"/>
<path d="M53.7065 46.126H34.3748L33.0908 48.3198H52.3916L53.7065 46.126Z" fill="#E0E0E0"/>
<path d="M75.6621 46.126H59.303V48.3198H75.6621V46.126Z" fill="#E0E0E0"/>
<path d="M123.318 46.126H106.563V48.3198H123.318V46.126Z" fill="#E0E0E0"/>
<path d="M196.421 46.126H179.667V48.3198H196.421V46.126Z" fill="#E0E0E0"/>
<path d="M241.653 48.3198H260.954L262.269 46.126H242.937L241.653 48.3198Z" fill="#E0E0E0"/>
<path d="M284.224 46.126H267.865V48.3198H284.224V46.126Z" fill="#E0E0E0"/>
<path d="M32.8644 68.0303H13.8426L12.8579 69.7142H31.8555L32.8644 68.0303Z" fill="#E0E0E0"/>
<path d="M67.943 68.0303H51.5839V69.7142H67.943V68.0303Z" fill="#E0E0E0"/>
<path d="M188.703 68.0303H171.948V69.7142H188.703V68.0303Z" fill="#E0E0E0"/>
<path d="M115.6 68.0303H98.8451V69.7142H115.6V68.0303Z" fill="#E0E0E0"/>
<path d="M221.42 69.7142H240.418L241.427 68.0303H222.405L221.42 69.7142Z" fill="#E0E0E0"/>
<path d="M276.505 68.0303H260.146V69.7142H276.505V68.0303Z" fill="#E0E0E0"/>
<path d="M78.0574 87.3311H1.52151L0 89.932H78.0574V87.3311Z" fill="#E0E0E0"/>
<path d="M114.839 87.3311H97.9884C98.0608 88.2067 98.1496 89.0756 98.2684 89.932H115.317C115.118 89.0813 114.959 88.2144 114.839 87.3311Z" fill="#E0E0E0"/>
<path d="M170.171 89.932H187.22C187.339 89.0756 187.427 88.2067 187.5 87.3311H170.648C170.531 88.2144 170.37 89.0813 170.171 89.932Z" fill="#E0E0E0"/>
<path d="M208.563 89.932H286.62V87.3311H210.084L208.563 89.932Z" fill="#E0E0E0"/>
<path d="M69.4863 50.626H53.1272V52.3099H69.4863V50.626Z" fill="#E0E0E0"/>
<path d="M44.8354 50.626H25.5675L24.5828 52.3099H43.8266L44.8354 50.626Z" fill="#E0E0E0"/>
<path d="M190.245 50.626H173.491V52.3099H190.245V50.626Z" fill="#E0E0E0"/>
<path d="M117.143 50.626H100.389V52.3099H117.143V50.626Z" fill="#E0E0E0"/>
<path d="M278.05 50.626H261.691V52.3099H278.05V50.626Z" fill="#E0E0E0"/>
<path d="M233.145 52.3099H252.389L253.398 50.626H234.13L233.145 52.3099Z" fill="#E0E0E0"/>
<path d="M74.6332 117.958H58.274V119.642H74.6332V117.958Z" fill="#E0E0E0"/>
<path d="M122.067 117.958C122.779 118.548 123.506 119.103 124.238 119.642H176.684C177.418 119.104 178.145 118.549 178.857 117.958H122.067Z" fill="#E0E0E0"/>
<path d="M283.196 117.958H266.837V119.642H283.196V117.958Z" fill="#E0E0E0"/>
<path d="M75.1477 106.532H58.7886V108.216H75.1477V106.532Z" fill="#E0E0E0"/>
<path d="M163.99 108.215H188.343C188.727 107.66 189.093 107.098 189.448 106.531H166.777C165.874 107.154 164.945 107.716 163.99 108.215Z" fill="#E0E0E0"/>
<path d="M135.173 106.532H112.508C112.862 107.099 113.229 107.661 113.612 108.216H137.952C137.001 107.716 136.074 107.154 135.173 106.532Z" fill="#E0E0E0"/>
<path d="M283.71 106.532H267.351V108.216H283.71V106.532Z" fill="#E0E0E0"/>
<path d="M56.4476 38.1162H37.002L32.9579 45.0298H52.305L56.4476 38.1162Z" fill="#E0E0E0"/>
<path d="M73.604 38.1162H57.2449V45.0298H73.604V38.1162Z" fill="#E0E0E0"/>
<path d="M177.609 44.7411V45.0298H194.363V44.7411C194.363 42.4712 194.211 40.2639 193.915 38.1162H176.863C177.356 40.2244 177.609 42.4308 177.609 44.7411Z" fill="#E0E0E0"/>
<path d="M121.259 44.7411C121.259 42.4308 121.511 40.2235 122.005 38.1162H104.953C104.657 40.2639 104.505 42.4722 104.505 44.7411V45.0298H121.26V44.7411H121.259Z" fill="#E0E0E0"/>
<path d="M260.868 45.0298L265.01 38.1162H245.565L241.52 45.0298H260.868Z" fill="#E0E0E0"/>
<path d="M282.166 38.1162H265.807V45.0298H282.166V38.1162Z" fill="#E0E0E0"/>
<path d="M75.1477 26.752H45.1935L42.7172 30.9857H75.1477V26.752Z" fill="#E0E0E0"/>
<path d="M176.09 30.9858H194.364C193.908 29.5434 193.373 28.1328 192.763 26.7529H173.063C174.226 28.1 175.234 29.5116 176.09 30.9858Z" fill="#E0E0E0"/>
<path d="M129.921 26.752H110.222C109.612 28.1318 109.077 29.5424 108.621 30.9848H126.894C127.75 29.5116 128.758 28.1 129.921 26.752Z" fill="#E0E0E0"/>
<path d="M251.794 30.9857H284.224V26.752H254.27L251.794 30.9857Z" fill="#E0E0E0"/>
<path d="M68.9717 102.314H52.6125V105.443H68.9717V102.314Z" fill="#E0E0E0"/>
<path d="M124.887 103.107C124.625 102.847 124.374 102.581 124.123 102.314H104.01C104.517 103.378 105.08 104.418 105.679 105.443H127.532C126.624 104.728 125.741 103.954 124.887 103.107Z" fill="#E0E0E0"/>
<path d="M164.719 103.107C163.864 103.954 162.98 104.728 162.072 105.444H183.926C184.525 104.418 185.089 103.379 185.596 102.315H165.483C165.232 102.58 164.981 102.847 164.719 103.107Z" fill="#E0E0E0"/>
<path d="M277.535 102.314H261.176V105.443H277.535V102.314Z" fill="#E0E0E0"/>
<path d="M74.6332 71.0303H58.274V74.1585H74.6332V71.0303Z" fill="#E0E0E0"/>
<path d="M37.755 71.0303H18.7767L16.9463 74.1594H35.8802L37.755 71.0303Z" fill="#E0E0E0"/>
<path d="M122.288 71.0303H105.534V74.1585H122.288V71.0303Z" fill="#E0E0E0"/>
<path d="M195.392 71.0303H178.637V74.1585H195.392V71.0303Z" fill="#E0E0E0"/>
<path d="M283.196 71.0303H266.837V74.1585H283.196V71.0303Z" fill="#E0E0E0"/>
<path d="M227.34 71.0303L225.51 74.1594H244.444L246.318 71.0303H227.34Z" fill="#E0E0E0"/>
<path d="M86.2905 85.3525H10.913L9.9978 86.9171H86.2905V85.3525Z" fill="#E0E0E0"/>
<path d="M178.931 86.9171H195.762C195.8 86.3975 195.838 85.8789 195.86 85.3525H179.076C179.041 85.8798 178.992 86.4014 178.931 86.9171Z" fill="#E0E0E0"/>
<path d="M122.88 85.3525H106.096C106.119 85.8789 106.156 86.3975 106.195 86.9171H123.026C122.963 86.4014 122.915 85.8798 122.88 85.3525Z" fill="#E0E0E0"/>
<path d="M218.56 86.9171H294.854V85.3525H219.475L218.56 86.9171Z" fill="#E0E0E0"/>
<path d="M70.0007 114.83H53.6416V117.958H70.0007V114.83Z" fill="#E0E0E0"/>
<path d="M63.5887 110.166H47.2296V113.294H63.5887V110.166Z" fill="#E0E0E0"/>
<path d="M74.5531 121.271H65.9386V124.4H74.5531V121.271Z" fill="#E0E0E0"/>
<path d="M177.655 114.83H114.01C114.028 114.847 114.044 114.867 114.062 114.884C115.159 115.977 116.284 117.002 117.438 117.958H174.227C175.38 117.002 176.506 115.977 177.603 114.884C177.62 114.866 177.637 114.847 177.655 114.83Z" fill="#E0E0E0"/>
<path d="M278.564 114.83H262.205V117.958H278.564V114.83Z" fill="#E0E0E0"/>
<path d="M71.5456 9.73926H51.543L49.0667 13.973H71.5456V9.73926Z" fill="#E0E0E0"/>
<path d="M179.147 13.1166C177.932 11.9013 176.676 10.7832 175.39 9.73633H119.362C118.075 10.7823 116.82 11.9004 115.605 13.1166C115.323 13.3986 115.055 13.6863 114.782 13.973H179.97C179.697 13.6863 179.43 13.3986 179.147 13.1166ZM160.431 12.953H153.021V10.7582H160.431V12.953Z" fill="#E0E0E0"/>
<path d="M257.629 13.973H280.108V9.73926H260.106L257.629 13.973Z" fill="#E0E0E0"/>
<path d="M81.0791 13.9727H60.306V14.881H81.0791V13.9727Z" fill="#E0E0E0"/>
<path d="M119.008 19.8828H98.235V20.7912H119.008V19.8828Z" fill="#E0E0E0"/>
<path d="M205.78 57.167H185.006V58.0753H205.78V57.167Z" fill="#E0E0E0"/>
<path d="M234.639 62.8457H213.866V63.754H234.639V62.8457Z" fill="#E0E0E0"/>
<path d="M268.014 95.6699H247.24V96.5783H268.014V95.6699Z" fill="#E0E0E0"/>
<path d="M293.583 17.958H272.81V18.8663H293.583V17.958Z" fill="#E0E0E0"/>
<path d="M259.202 15.7139H238.429V16.6222H259.202V15.7139Z" fill="#E0E0E0"/>
<path d="M53.7848 20.335H37.7559V22.5298H53.7848V20.335Z" fill="#E0E0E0"/>
<path d="M22.9149 61.6543H6.88599V63.8491H22.9149V61.6543Z" fill="#E0E0E0"/>
<path d="M183.879 12.876H163.105V15.0708H183.879V12.876Z" fill="#E0E0E0"/>
<path d="M126.696 62.752H117.154V63.8499H126.696V62.752Z" fill="#E0E0E0"/>
<path d="M84.372 26.752H80.6023V30.9855H84.372V26.752Z" fill="#E0E0E0"/>
<path d="M76.3372 59.5381H67.7565V63.7709H76.3372V59.5381Z" fill="#E0E0E0"/>
<path d="M290.463 26.752H286.693V30.9855H290.463V26.752Z" fill="#E0E0E0"/>
<path d="M196.248 16.752H192.479V20.9855H196.248V16.752Z" fill="#E0E0E0"/>
</svg>
