<svg width="64" height="64" viewBox="0 0 64 64" fill="none" xmlns="http://www.w3.org/2000/svg">
<rect width="64" height="64" fill="#1E1E1E"/>
<g id="&#216;&#180;&#216;&#167;&#216;&#177;&#218;&#152; &#216;&#173;&#216;&#179;&#216;&#167;&#216;&#168;">
<path d="M-688 -3258C-688 -3259.1 -687.105 -3260 -686 -3260H750C751.104 -3260 752 -3259.1 752 -3258V3238C752 3239.1 751.105 3240 750 3240H-686C-687.105 3240 -688 3239.1 -688 3238V-3258Z" fill="#404040"/>
<g id="&#217;&#190;&#216;&#177;&#216;&#175;&#216;&#167;&#216;&#174;&#216;&#170; &#217;&#133;&#217;&#136;&#217;&#129;&#217;&#130;">
<rect width="1440" height="1024" transform="translate(-688 -196)" fill="white"/>
<path id="Vector" fill-rule="evenodd" clip-rule="evenodd" d="M17.0674 5.81944C19.6405 5.614 22.0831 4.60196 24.0474 2.92744C26.2661 1.0378 29.0851 0 31.9994 0C34.9137 0 37.7328 1.0378 39.9514 2.92744C41.9158 4.60196 44.3584 5.614 46.9314 5.81944C49.8372 6.05166 52.5652 7.31129 54.6264 9.3725C56.6876 11.4337 57.9472 14.1617 58.1794 17.0674C58.3834 19.6394 59.3954 22.0834 61.0714 24.0474C62.9611 26.2661 63.9989 29.0851 63.9989 31.9994C63.9989 34.9137 62.9611 37.7328 61.0714 39.9514C59.3969 41.9158 58.3849 44.3584 58.1794 46.9314C57.9472 49.8372 56.6876 52.5652 54.6264 54.6264C52.5652 56.6876 49.8372 57.9472 46.9314 58.1794C44.3584 58.3849 41.9158 59.3969 39.9514 61.0714C37.7328 62.9611 34.9137 63.9989 31.9994 63.9989C29.0851 63.9989 26.2661 62.9611 24.0474 61.0714C22.0831 59.3969 19.6405 58.3849 17.0674 58.1794C14.1617 57.9472 11.4337 56.6876 9.3725 54.6264C7.31129 52.5652 6.05166 49.8372 5.81944 46.9314C5.614 44.3584 4.60196 41.9158 2.92744 39.9514C1.0378 37.7328 0 34.9137 0 31.9994C0 29.0851 1.0378 26.2661 2.92744 24.0474C4.60196 22.0831 5.614 19.6405 5.81944 17.0674C6.05166 14.1617 7.31129 11.4337 9.3725 9.3725C11.4337 7.31129 14.1617 6.05166 17.0674 5.81944ZM46.8274 26.8274C47.5561 26.073 47.9592 25.0626 47.9501 24.0138C47.941 22.965 47.5203 21.9618 46.7787 21.2202C46.0371 20.4785 45.0338 20.0579 43.985 20.0487C42.9363 20.0396 41.9258 20.4428 41.1714 21.1714L27.9994 34.3434L22.8274 29.1714C22.073 28.4428 21.0626 28.0396 20.0138 28.0487C18.965 28.0579 17.9618 28.4785 17.2202 29.2202C16.4785 29.9618 16.0579 30.965 16.0487 32.0138C16.0396 33.0626 16.4428 34.073 17.1714 34.8274L25.1714 42.8274C25.9216 43.5773 26.9388 43.9986 27.9994 43.9986C29.0601 43.9986 30.0773 43.5773 30.8274 42.8274L46.8274 26.8274Z" fill="#4CAF50"/>
</g>
</g>
</svg>
