<svg width="31" height="9" viewBox="0 0 31 9" fill="none" xmlns="http://www.w3.org/2000/svg">
<path d="M16.8237 7.37048C16.8242 7.34506 16.82 7.32025 16.8138 7.29558C16.7837 7.17753 16.6847 7.08985 16.5605 7.0703C16.5276 7.06519 16.4949 7.06473 16.4619 7.06473C15.4085 7.06473 14.355 7.06473 13.3016 7.06473C13.2686 7.06473 13.2357 7.06443 13.2027 7.06428C13.1435 7.06398 13.0852 7.05676 13.0274 7.04368C12.7637 6.98427 12.561 6.84261 12.4199 6.61913C12.3493 6.50723 12.3074 6.38512 12.2911 6.25443C12.2851 6.2057 12.2835 6.15712 12.2835 6.1084C12.2834 5.81889 12.2831 5.52939 12.2831 5.23989C12.2831 4.50267 12.2831 3.76545 12.2831 3.02824C12.2831 3.00643 12.2829 2.98447 12.2831 2.96267C12.2831 2.94071 12.2798 2.9192 12.275 2.8977C12.2451 2.76626 12.1281 2.67933 12.0158 2.6664C11.99 2.66339 11.9642 2.66113 11.938 2.66113C11.5076 2.66113 11.0772 2.66113 10.6469 2.66113C10.6173 2.66113 10.588 2.66324 10.5587 2.66745C10.4153 2.6879 10.3032 2.80716 10.2969 2.94688C10.2958 2.97214 10.2963 2.99741 10.2963 3.02267C10.2963 4.03932 10.2963 5.05596 10.2963 6.0726C10.2963 6.09952 10.2966 6.12644 10.2959 6.15336C10.2945 6.21578 10.2883 6.27789 10.2742 6.33865C10.2232 6.55882 10.1068 6.73974 9.92161 6.8766C9.75653 6.99856 9.56929 7.06188 9.36097 7.06443C9.33493 7.06473 9.30889 7.06473 9.28285 7.06473C7.98982 7.06428 6.69695 7.06383 5.40393 7.06353C5.04122 7.06353 4.67852 7.06338 4.31581 7.06338C2.99675 7.06338 1.67784 7.06338 0.358773 7.06353C0.341413 7.06353 0.324053 7.06383 0.306692 7.06353C0.275072 7.06308 0.244227 7.06849 0.214621 7.07782C0.147815 7.09887 0.0862797 7.14098 0.0456693 7.19693C0.0075388 7.24957 0.00149373 7.3025 0.00149373 7.36491C0.00149373 7.43455 0.00149373 7.50418 0.00149373 7.57381V8.48773C0.00149373 8.5721 -0.00176131 8.65707 0.00133873 8.74129C0.00335375 8.79799 0.0380742 8.85664 0.0775996 8.89755C0.11759 8.93891 0.169826 8.96643 0.225626 8.98222C0.237252 8.98553 0.249342 8.98778 0.261277 8.98839C0.292432 8.99034 0.323588 8.99215 0.354743 8.99215C1.68512 8.99245 3.0155 8.99245 4.34604 8.99245C4.53514 8.99245 4.72425 8.99245 4.91319 8.9923C4.92885 8.9923 4.94435 8.9923 4.96 8.99275C4.96884 8.9929 4.97721 8.9947 4.98449 8.99982H9.37942C9.38934 8.99711 9.3991 8.99305 9.40918 8.992C9.42638 8.99004 9.44374 8.98914 9.4611 8.98914C9.52713 8.98914 9.59285 8.98207 9.65826 8.97515C9.90379 8.94883 10.1436 8.8983 10.3767 8.81784C10.6985 8.7067 10.9916 8.54699 11.2537 8.33419C11.259 8.32982 11.2644 8.32546 11.2698 8.3214C11.287 8.30817 11.2924 8.30817 11.3106 8.322C11.35 8.35238 11.3885 8.38366 11.4287 8.41299C11.6897 8.60474 11.9771 8.74701 12.2883 8.84446C12.4336 8.89003 12.5816 8.92507 12.7324 8.94898C12.8129 8.96162 12.8935 8.97199 12.9747 8.97981C13.0266 8.98478 13.0784 8.98748 13.1303 8.98989C13.1509 8.99079 13.1722 8.98944 13.1912 8.99982H16.5447C16.5535 8.99019 16.5661 8.99004 16.5779 8.98748C16.7355 8.9538 16.8246 8.81814 16.8237 8.69362C16.8237 8.67843 16.8237 8.66339 16.8237 8.6482C16.8237 8.23583 16.8237 7.82346 16.8237 7.41108C16.8237 7.39755 16.8234 7.38416 16.8237 7.37063V7.37048Z" fill="white"/>
<path d="M19.3885 0C19.402 0.00902347 19.4179 0.00872268 19.4333 0.0114297C19.5252 0.0279727 19.597 0.073842 19.6466 0.150993C19.6727 0.191598 19.6884 0.235813 19.6907 0.284089C19.6913 0.297474 19.692 0.311009 19.6921 0.324394C19.6924 0.344546 19.6921 0.364849 19.6921 0.385001C19.6921 3.12859 19.6921 5.87202 19.6921 8.6156C19.6921 8.64764 19.6926 8.67967 19.6903 8.71155C19.6808 8.83954 19.5859 8.94737 19.457 8.97744C19.4299 8.98376 19.4027 8.98827 19.3747 8.98737C19.359 8.98677 19.3434 8.98737 19.3279 8.98737C18.9078 8.98737 18.4879 8.98737 18.0679 8.98737C18.0488 8.98737 18.0297 8.98737 18.0107 8.98722C17.8995 8.98527 17.7679 8.91849 17.7216 8.77773C17.712 8.7487 17.7067 8.71892 17.7055 8.68854C17.7048 8.6717 17.7052 8.65486 17.7052 8.63801C17.7052 5.87593 17.7052 3.11385 17.7052 0.351915C17.7052 0.320032 17.7059 0.2883 17.7112 0.256417C17.7292 0.147233 17.8213 0.0345899 17.9687 0.0114297C17.984 0.00902346 17.9998 0.0084219 18.0136 0.000300782H19.3883L19.3885 0Z" fill="white"/>
<path d="M30.9994 8.7672C30.9957 8.77276 30.9902 8.77788 30.9887 8.78404C30.9768 8.83172 30.9475 8.86886 30.9126 8.90225C30.8748 8.93849 30.8292 8.96256 30.778 8.97579C30.7495 8.98316 30.7205 8.98827 30.6906 8.98707C30.675 8.98647 30.6595 8.98707 30.6438 8.98707C30.2238 8.98707 29.8039 8.98707 29.3838 8.98707C29.3647 8.98707 29.3457 8.98707 29.3266 8.98692C29.2026 8.98527 29.0583 8.9036 29.025 8.73396C29.0223 8.72088 29.0222 8.70719 29.0219 8.69381C29.0213 8.67531 29.0216 8.65681 29.0216 8.63831C29.0216 5.87638 29.0216 3.1143 29.0216 0.352366C29.0216 0.335523 29.0216 0.318679 29.0216 0.301835C29.022 0.177612 29.1112 0.0601564 29.2376 0.0218067C29.2559 0.0162422 29.2742 0.0114297 29.2934 0.00977542C29.3038 0.00887308 29.314 0.00661721 29.3226 0H30.7077C30.719 0.00932425 30.7331 0.00917386 30.7467 0.0112793C30.8042 0.0204532 30.8557 0.0428615 30.8996 0.0798577C30.942 0.1155 30.9747 0.157911 30.9892 0.211751C30.9902 0.215811 30.9958 0.218819 30.9992 0.222128V8.7672H30.9994Z" fill="white"/>
<path d="M25.6152 2.65672C26.3372 2.65672 27.0592 2.65672 27.7812 2.65672C27.8056 2.65672 27.8298 2.65687 27.8541 2.65717C27.9708 2.65852 28.1047 2.74169 28.141 2.88847C28.1466 2.91118 28.1472 2.93509 28.1489 2.95855C28.1501 2.97359 28.1494 2.98878 28.1494 3.00397C28.1494 3.41469 28.1494 3.82541 28.1494 4.23612C28.1494 4.26305 28.1489 4.29012 28.1461 4.31673C28.1328 4.4396 28.0432 4.54097 27.9203 4.57285C27.8935 4.57977 27.8662 4.58443 27.8381 4.58383C27.8138 4.58323 27.7896 4.58383 27.7653 4.58383C26.3734 4.58383 24.9814 4.58383 23.5897 4.58383C23.5619 4.58383 23.5342 4.58353 23.5064 4.58398C23.2364 4.58879 23.0063 4.68384 22.819 4.87273C22.6893 5.00357 22.6098 5.16058 22.575 5.33849C22.5661 5.38466 22.56 5.43158 22.5608 5.47896C22.5612 5.51099 22.5605 5.54287 22.5605 5.57491C22.5605 6.59155 22.5605 7.60819 22.5605 8.62484C22.5605 8.64665 22.5614 8.6686 22.5602 8.69041C22.5535 8.79839 22.5054 8.88381 22.4101 8.94186C22.3622 8.97104 22.3091 8.98548 22.2523 8.98683C22.2367 8.98728 22.221 8.98698 22.2055 8.98698C21.7786 8.98698 21.3516 8.98698 20.9247 8.98698C20.9091 8.98698 20.8934 8.98698 20.8779 8.98683C20.7519 8.98487 20.6189 8.90381 20.5805 8.75402C20.5751 8.73297 20.5744 8.71071 20.573 8.6889C20.5718 8.67041 20.5724 8.65191 20.5724 8.63341C20.5724 7.62684 20.5724 6.62028 20.5726 5.61386C20.5726 5.52979 20.5744 5.44557 20.5783 5.3615C20.5809 5.3045 20.5884 5.24751 20.5941 5.19066C20.5994 5.13712 20.6078 5.08388 20.6166 5.03064C20.6471 4.84747 20.6947 4.66865 20.7597 4.4942C20.8658 4.20845 21.0143 3.94557 21.2087 3.7072C21.4389 3.42507 21.7166 3.19722 22.0409 3.02262C22.285 2.89118 22.5439 2.79673 22.8162 2.73673C22.9109 2.71582 23.0063 2.69853 23.1027 2.68619C23.1681 2.67792 23.2335 2.67161 23.2992 2.66574C23.3789 2.65852 23.4586 2.65747 23.5384 2.65672C23.6061 2.65612 23.6737 2.65627 23.7414 2.65627C24.3662 2.65627 24.9911 2.65627 25.6157 2.65627L25.6152 2.65672Z" fill="white"/>
<path d="M5.37525 4.07638C4.71076 4.07638 4.04611 4.07638 3.38162 4.07638C3.35031 4.07638 3.31946 4.07473 3.2883 4.07022C3.17143 4.05277 3.06572 3.96028 3.03829 3.84162C3.03147 3.81185 3.0293 3.78192 3.0293 3.75154C3.02945 3.43692 3.0293 3.12215 3.0293 2.80753C3.0293 2.69309 3.0293 2.57864 3.0293 2.46419C3.0293 2.43893 3.03209 2.41411 3.03658 2.389C3.05472 2.28944 3.14338 2.17544 3.29001 2.15198C3.31574 2.14792 3.34147 2.14476 3.36767 2.14566C3.37635 2.14596 3.38503 2.14566 3.39371 2.14566C4.71587 2.14566 6.03788 2.14566 7.36005 2.14566C7.39477 2.14566 7.42933 2.14521 7.46374 2.15198C7.58682 2.17634 7.66835 2.24597 7.70803 2.36117C7.71733 2.38824 7.72244 2.41667 7.72151 2.44554C7.72105 2.45727 7.72151 2.46915 7.72151 2.48088C7.72151 2.90153 7.72151 3.32232 7.72151 3.74297C7.72151 3.7565 7.72167 3.76989 7.7212 3.78342C7.71578 3.94043 7.59224 4.05172 7.46188 4.07037C7.43088 4.07488 7.39988 4.07638 7.36857 4.07638C6.70408 4.07638 6.03943 4.07638 5.37494 4.07638H5.37525Z" fill="white"/>
<path d="M25.7949 6.39486C26.4542 6.39486 27.1136 6.39486 27.7728 6.39486C27.7955 6.39486 27.8179 6.39486 27.8406 6.39516C27.9694 6.39636 28.1126 6.49427 28.1362 6.64722C28.14 6.67233 28.1422 6.6973 28.1422 6.72256C28.1422 7.14667 28.1422 7.57062 28.1422 7.99472C28.1422 8.01999 28.1399 8.04495 28.1363 8.07007C28.1173 8.20151 27.9922 8.31941 27.8407 8.32182C27.8234 8.32212 27.806 8.32197 27.7887 8.32197C26.4595 8.32197 25.1305 8.32197 23.8014 8.32197C23.784 8.32197 23.7667 8.32212 23.7493 8.32167C23.6176 8.31821 23.5011 8.23189 23.4627 8.10932C23.4551 8.08496 23.4501 8.06029 23.4498 8.03487C23.4495 8.01803 23.4492 8.00119 23.4492 7.98434C23.4492 7.56701 23.4492 7.14967 23.4492 6.73234C23.4492 6.71549 23.4492 6.69865 23.4498 6.68181C23.4554 6.55382 23.5455 6.44253 23.6724 6.40659C23.6991 6.39907 23.7264 6.39411 23.7544 6.39456C23.7752 6.39501 23.7961 6.39456 23.8169 6.39456C24.4763 6.39456 25.1356 6.39456 25.7949 6.39456V6.39486Z" fill="white"/>
<path d="M16.8253 3.11628C16.8253 3.32999 16.8253 3.54369 16.8253 3.75755C16.8253 3.78958 16.8236 3.82117 16.8149 3.8526C16.7777 3.98539 16.6621 4.05758 16.5667 4.07036C16.5409 4.07382 16.5153 4.07653 16.4891 4.07653C16.0518 4.07638 15.6146 4.07638 15.1773 4.07653C15.1406 4.07653 15.104 4.07427 15.0693 4.0639C14.9518 4.02916 14.8775 3.95366 14.8478 3.83756C14.8423 3.8162 14.8396 3.79455 14.8399 3.77259C14.8399 3.76417 14.8399 3.75575 14.8399 3.74732C14.8399 3.32322 14.8399 2.89912 14.8399 2.47501C14.8399 2.44298 14.8411 2.4114 14.8487 2.37982C14.873 2.27996 14.9577 2.17544 15.0997 2.15213C15.1271 2.14761 15.1545 2.14551 15.1824 2.14551C15.618 2.14566 16.0535 2.14566 16.4891 2.14551C16.5292 2.14551 16.5689 2.14852 16.607 2.16115C16.7258 2.2004 16.7968 2.28071 16.8219 2.39937C16.825 2.41411 16.825 2.42945 16.8253 2.44464C16.8257 2.47321 16.8256 2.50178 16.8256 2.53051C16.8256 2.72572 16.8256 2.92092 16.8256 3.11613L16.8253 3.11628Z" fill="white"/>
</svg>
